<svg width="15" height="14" viewBox="0 0 15 14" fill="none" xmlns="http://www.w3.org/2000/svg">
<path d="M3.92812 4.00005H5.5C6.05312 4.00005 6.5 4.44692 6.5 5.00005C6.5 5.55317 6.05312 6.00005 5.5 6.00005H1.5C0.946875 6.00005 0.5 5.55317 0.5 5.00005V1.00005C0.5 0.446924 0.946875 4.88758e-05 1.5 4.88758e-05C2.05313 4.88758e-05 2.5 0.446924 2.5 1.00005V2.60005L3.05 2.05005C5.78438 -0.684326 10.2156 -0.684326 12.95 2.05005C15.6844 4.78442 15.6844 9.21567 12.95 11.95C10.2156 14.6844 5.78438 14.6844 3.05 11.95C2.65937 11.5594 2.65937 10.925 3.05 10.5344C3.44062 10.1438 4.075 10.1438 4.46562 10.5344C6.41875 12.4875 9.58438 12.4875 11.5375 10.5344C13.4906 8.5813 13.4906 5.41567 11.5375 3.46255C9.58438 1.50942 6.41875 1.50942 4.46562 3.46255L3.92812 4.00005Z" fill="#86EFAC"/>
</svg>
