<svg width="20" height="21" viewBox="0 0 20 21" fill="none" xmlns="http://www.w3.org/2000/svg">
<path d="M1.90234 5.41406L3.98047 6.66016C4.28516 6.84375 4.67578 6.73828 4.84766 6.42969L7.875 0.972656C7.99219 0.761719 7.83984 0.5 7.59766 0.5C7.53516 0.5 7.47266 0.519531 7.41797 0.554688L1.87109 4.35938C1.49609 4.61719 1.51172 5.17578 1.90234 5.41016V5.41406ZM0.625 7.20703V12.0352C0.625 12.3477 1.03125 12.4648 1.19922 12.207L3.54297 8.61328C3.73828 8.31641 3.64453 7.91797 3.33984 7.73438L1.57031 6.67188C1.15625 6.42188 0.625 6.72266 0.625 7.20703ZM12.125 0.972656L15.1562 6.42578C15.3281 6.73438 15.7227 6.83984 16.0234 6.65625L18.1016 5.41016C18.4922 5.17578 18.5078 4.61719 18.1328 4.35938L12.582 0.554688C12.5273 0.519531 12.4648 0.5 12.4023 0.5C12.1602 0.5 12.0078 0.761719 12.125 0.972656ZM19.375 7.20703C19.375 6.72266 18.8438 6.42188 18.4297 6.67188L16.6602 7.73438C16.3555 7.91797 16.2656 8.31641 16.457 8.61328L18.8008 12.207C18.9688 12.4688 19.375 12.3477 19.375 12.0352V7.20703ZM17.4492 16.8164L11.1758 17.5547C10.8594 17.5898 10.625 17.8594 10.625 18.1758V20.2383C10.625 20.3828 10.7422 20.5039 10.8906 20.5039C10.9219 20.5039 10.9531 20.5 10.9844 20.4883L17.7305 17.9883C17.9688 17.9023 18.125 17.6758 18.125 17.4219C18.125 17.0586 17.8086 16.7773 17.4492 16.8203V16.8164ZM9.10938 20.5C9.25391 20.5 9.375 20.3828 9.375 20.2344V18.1797C9.375 17.8633 9.13672 17.5977 8.82422 17.5586L2.55078 16.8164C2.19141 16.7734 1.875 17.0547 1.875 17.418C1.875 17.6719 2.03125 17.8984 2.26953 17.9844L9.01562 20.4844C9.04688 20.4961 9.07812 20.5 9.10938 20.5ZM1.62891 15.457L8.30469 16.2461C8.60938 16.2812 8.82812 15.9531 8.67578 15.6875L5.32812 9.82812C5.09766 9.42188 4.51953 9.40625 4.26172 9.79688L1.17969 14.4922C0.925781 14.8789 1.16797 15.4023 1.62891 15.457ZM18.8008 14.4883L15.7383 9.80078C15.4844 9.41016 14.9023 9.42578 14.6719 9.83203L11.3359 15.6758C11.1836 15.9414 11.3984 16.2695 11.707 16.2344L18.3516 15.4531C18.8125 15.3984 19.0547 14.8789 18.8008 14.4922V14.4883ZM10.3281 14.918L13.3906 9.55859C13.6289 9.14062 13.3281 8.625 12.8477 8.625H7.15234C6.67188 8.625 6.37109 9.14453 6.60938 9.55859L9.67188 14.918C9.81641 15.168 10.1797 15.168 10.3242 14.918H10.3281ZM6.8125 7.375H13.1875C13.6641 7.375 13.9648 6.86328 13.7344 6.44531L10.6094 0.820312C10.5 0.621094 10.2891 0.5 10.0625 0.5H9.9375C9.71094 0.5 9.5 0.625 9.39062 0.820312L6.26562 6.44531C6.03516 6.86328 6.33594 7.375 6.8125 7.375Z" fill="white"/>
</svg>
