<svg width="23" height="14" viewBox="0 0 23 14" fill="none" xmlns="http://www.w3.org/2000/svg">
<path fill-rule="evenodd" clip-rule="evenodd" d="M0.506001 0.861998C0.821171 0.558771 1.24383 0.393077 1.68111 0.401328C2.11838 0.409578 2.5345 0.591098 2.838 0.905998L11 9.5696L19.162 0.905998C19.3104 0.742439 19.49 0.610325 19.6904 0.517483C19.8908 0.424641 20.1077 0.372961 20.3284 0.365504C20.5491 0.358047 20.7691 0.394965 20.9752 0.474072C21.1814 0.553178 21.3696 0.672863 21.5286 0.826034C21.6877 0.979206 21.8144 1.16275 21.9012 1.36578C21.988 1.56882 22.0332 1.78721 22.0341 2.00803C22.035 2.22885 21.9915 2.4476 21.9063 2.65132C21.8211 2.85503 21.6958 3.03957 21.538 3.194L12.188 13.094C12.0341 13.2537 11.8496 13.3807 11.6454 13.4675C11.4413 13.5542 11.2218 13.5989 11 13.5989C10.7782 13.5989 10.5587 13.5542 10.3546 13.4675C10.1505 13.3807 9.96592 13.2537 9.812 13.094L0.462002 3.194C0.158775 2.87883 -0.00691889 2.45617 0.00133159 2.01889C0.00958206 1.58162 0.191102 1.1655 0.506001 0.861998Z" fill="#374151"/>
</svg>
