<svg width="17" height="19" viewBox="0 0 17 19" fill="none" xmlns="http://www.w3.org/2000/svg">
<path d="M4.76562 0.25C5.38789 0.25 5.89062 0.752734 5.89062 1.375V2.5H10.3906V1.375C10.3906 0.752734 10.8934 0.25 11.5156 0.25C12.1379 0.25 12.6406 0.752734 12.6406 1.375V2.5H14.3281C15.2598 2.5 16.0156 3.25586 16.0156 4.1875V5.875H0.265625V4.1875C0.265625 3.25586 1.02148 2.5 1.95312 2.5H3.64062V1.375C3.64062 0.752734 4.14336 0.25 4.76562 0.25ZM0.265625 7H16.0156V16.5625C16.0156 17.4941 15.2598 18.25 14.3281 18.25H1.95312C1.02148 18.25 0.265625 17.4941 0.265625 16.5625V7ZM2.51562 9.8125V10.9375C2.51562 11.2469 2.76875 11.5 3.07812 11.5H4.20312C4.5125 11.5 4.76562 11.2469 4.76562 10.9375V9.8125C4.76562 9.50313 4.5125 9.25 4.20312 9.25H3.07812C2.76875 9.25 2.51562 9.50313 2.51562 9.8125ZM7.01562 9.8125V10.9375C7.01562 11.2469 7.26875 11.5 7.57812 11.5H8.70312C9.0125 11.5 9.26562 11.2469 9.26562 10.9375V9.8125C9.26562 9.50313 9.0125 9.25 8.70312 9.25H7.57812C7.26875 9.25 7.01562 9.50313 7.01562 9.8125ZM12.0781 9.25C11.7688 9.25 11.5156 9.50313 11.5156 9.8125V10.9375C11.5156 11.2469 11.7688 11.5 12.0781 11.5H13.2031C13.5125 11.5 13.7656 11.2469 13.7656 10.9375V9.8125C13.7656 9.50313 13.5125 9.25 13.2031 9.25H12.0781ZM2.51562 14.3125V15.4375C2.51562 15.7469 2.76875 16 3.07812 16H4.20312C4.5125 16 4.76562 15.7469 4.76562 15.4375V14.3125C4.76562 14.0031 4.5125 13.75 4.20312 13.75H3.07812C2.76875 13.75 2.51562 14.0031 2.51562 14.3125ZM7.57812 13.75C7.26875 13.75 7.01562 14.0031 7.01562 14.3125V15.4375C7.01562 15.7469 7.26875 16 7.57812 16H8.70312C9.0125 16 9.26562 15.7469 9.26562 15.4375V14.3125C9.26562 14.0031 9.0125 13.75 8.70312 13.75H7.57812ZM11.5156 14.3125V15.4375C11.5156 15.7469 11.7688 16 12.0781 16H13.2031C13.5125 16 13.7656 15.7469 13.7656 15.4375V14.3125C13.7656 14.0031 13.5125 13.75 13.2031 13.75H12.0781C11.7688 13.75 11.5156 14.0031 11.5156 14.3125Z" fill="#581C87"/>
</svg>
