<svg width="30" height="24" viewBox="0 0 30 24" fill="none" xmlns="http://www.w3.org/2000/svg">
<path d="M5.25 0C4.00781 0 3 1.00781 3 2.25V4.5H0.75C0.3375 4.5 0 4.8375 0 5.25C0 5.6625 0.3375 6 0.75 6H3H12.75C13.1625 6 13.5 6.3375 13.5 6.75C13.5 7.1625 13.1625 7.5 12.75 7.5H3H2.25C1.8375 7.5 1.5 7.8375 1.5 8.25C1.5 8.6625 1.8375 9 2.25 9H3H11.25C11.6625 9 12 9.3375 12 9.75C12 10.1625 11.6625 10.5 11.25 10.5H3H0.75C0.3375 10.5 0 10.8375 0 11.25C0 11.6625 0.3375 12 0.75 12H3H9.75C10.1625 12 10.5 12.3375 10.5 12.75C10.5 13.1625 10.1625 13.5 9.75 13.5H3V19.5C3 21.9844 5.01562 24 7.5 24C9.98438 24 12 21.9844 12 19.5H18C18 21.9844 20.0156 24 22.5 24C24.9844 24 27 21.9844 27 19.5H28.5C29.3297 19.5 30 18.8297 30 18C30 17.1703 29.3297 16.5 28.5 16.5V13.5V12V11.1234C28.5 10.3266 28.1859 9.5625 27.6234 9L24 5.37656C23.4375 4.81406 22.6734 4.5 21.8766 4.5H19.5V2.25C19.5 1.00781 18.4922 0 17.25 0H5.25ZM25.5 11.1234V12H19.5V7.5H21.8766L25.5 11.1234ZM7.5 17.25C8.09674 17.25 8.66903 17.4871 9.09099 17.909C9.51295 18.331 9.75 18.9033 9.75 19.5C9.75 20.0967 9.51295 20.669 9.09099 21.091C8.66903 21.5129 8.09674 21.75 7.5 21.75C6.90326 21.75 6.33097 21.5129 5.90901 21.091C5.48705 20.669 5.25 20.0967 5.25 19.5C5.25 18.9033 5.48705 18.331 5.90901 17.909C6.33097 17.4871 6.90326 17.25 7.5 17.25ZM20.25 19.5C20.25 18.9033 20.4871 18.331 20.909 17.909C21.331 17.4871 21.9033 17.25 22.5 17.25C23.0967 17.25 23.669 17.4871 24.091 17.909C24.5129 18.331 24.75 18.9033 24.75 19.5C24.75 20.0967 24.5129 20.669 24.091 21.091C23.669 21.5129 23.0967 21.75 22.5 21.75C21.9033 21.75 21.331 21.5129 20.909 21.091C20.4871 20.669 20.25 20.0967 20.25 19.5Z" fill="#16A34A"/>
</svg>
