<svg width="19" height="14" viewBox="0 0 19 14" fill="none" xmlns="http://www.w3.org/2000/svg">
<path d="M16.2041 1.18239C16.199 1.1725 16.1905 1.16474 16.1802 1.16052C14.9889 0.613914 13.7316 0.224141 12.44 0.000956052C12.4283 -0.00122554 12.4162 0.000348287 12.4054 0.0054537C12.3946 0.0105591 12.3857 0.0189362 12.3799 0.0293935C12.2087 0.340109 12.0533 0.659265 11.9143 0.985644C10.522 0.774294 9.10579 0.774294 7.7135 0.985644C7.57355 0.658436 7.41565 0.339201 7.24053 0.0293935C7.23452 0.0191634 7.22557 0.0109793 7.21485 0.00590705C7.20412 0.000834804 7.19212 -0.000890457 7.1804 0.000956052C5.88865 0.223673 4.63135 0.613474 3.44015 1.16055C3.42995 1.16487 3.42135 1.17225 3.41553 1.18167C1.03337 4.73911 0.380808 8.20908 0.700933 11.6361C0.701834 11.6445 0.704414 11.6526 0.708521 11.66C0.712628 11.6674 0.718177 11.6739 0.724839 11.679C2.11195 12.7061 3.66344 13.4901 5.31312 13.9975C5.32474 14.0009 5.33714 14.0008 5.34867 13.997C5.3602 13.9932 5.37029 13.986 5.37759 13.9763C5.7319 13.4942 6.04585 12.9837 6.31625 12.45C6.31996 12.4427 6.32208 12.4347 6.32247 12.4265C6.32286 12.4183 6.3215 12.4101 6.31849 12.4024C6.31548 12.3948 6.31089 12.3879 6.30501 12.3821C6.29914 12.3764 6.29211 12.372 6.2844 12.3691C5.78933 12.1797 5.31004 11.9514 4.85103 11.6862C4.84269 11.6813 4.83569 11.6745 4.83064 11.6662C4.82559 11.658 4.82265 11.6486 4.82208 11.6389C4.82151 11.6293 4.82332 11.6196 4.82736 11.6108C4.8314 11.6021 4.83754 11.5944 4.84525 11.5885C4.94156 11.5164 5.03793 11.4413 5.1299 11.3655C5.13807 11.3588 5.14796 11.3545 5.15845 11.3531C5.16894 11.3516 5.17962 11.3532 5.18928 11.3575C8.19643 12.7299 11.4521 12.7299 14.4237 11.3575C14.4333 11.3529 14.4441 11.3512 14.4548 11.3524C14.4654 11.3537 14.4755 11.358 14.4838 11.3648C14.5758 11.4406 14.6721 11.5164 14.7692 11.5885C14.7769 11.5943 14.7831 11.6019 14.7872 11.6107C14.7913 11.6195 14.7932 11.6291 14.7927 11.6387C14.7922 11.6484 14.7893 11.6578 14.7843 11.6661C14.7793 11.6744 14.7724 11.6813 14.7641 11.6862C14.3061 11.9536 13.8264 12.1818 13.33 12.3684C13.3223 12.3714 13.3153 12.3759 13.3095 12.3817C13.3036 12.3875 13.2991 12.3945 13.2961 12.4022C13.2932 12.4099 13.2919 12.4182 13.2924 12.4264C13.2928 12.4346 13.295 12.4427 13.2988 12.45C13.5737 12.9808 13.8872 13.4906 14.2367 13.9755C14.2438 13.9854 14.2539 13.9929 14.2654 13.9968C14.277 14.0007 14.2895 14.0009 14.3012 13.9974C15.9538 13.4917 17.508 12.7077 18.8969 11.679C18.9036 11.6741 18.9093 11.6678 18.9134 11.6605C18.9175 11.6532 18.92 11.6451 18.9208 11.6368C19.304 7.67483 18.2792 4.2333 16.2041 1.18239ZM6.76534 9.54939C5.85996 9.54939 5.11396 8.71855 5.11396 7.69817C5.11396 6.6778 5.8455 5.84689 6.76534 5.84689C7.69237 5.84689 8.43115 6.68502 8.41668 7.69811C8.41668 8.71855 7.68512 9.54939 6.76534 9.54939ZM12.871 9.54939C11.9656 9.54939 11.2196 8.71855 11.2196 7.69817C11.2196 6.6778 11.9512 5.84689 12.871 5.84689C13.7981 5.84689 14.5368 6.68502 14.5223 7.69811C14.5223 8.71855 13.7981 9.54939 12.871 9.54939Z" fill="#9333EA"/>
</svg>
