<svg width="16" height="16" viewBox="0 0 16 16" fill="none" xmlns="http://www.w3.org/2000/svg">
<path d="M6.59375 0.228181C6.40625 0.0313061 6.125 -0.0436939 5.8625 0.0250561C5.6 0.0938061 5.39687 0.303181 5.32812 0.565681L4.83437 2.51881L2.89687 1.97193C2.63437 1.89693 2.35312 1.97193 2.16249 2.16256C1.97187 2.35318 1.89687 2.63443 1.97187 2.89693L2.51874 4.83443L0.56562 5.33131C0.30312 5.39693 0.09687 5.60318 0.024995 5.86568C-0.04688 6.12818 0.031245 6.40631 0.22812 6.59381L1.67187 8.00006L0.22812 9.40631C0.031245 9.59381 -0.043755 9.87506 0.024995 10.1376C0.093745 10.4001 0.30312 10.6032 0.56562 10.6719L2.51874 11.1657L1.97187 13.1032C1.89687 13.3657 1.97187 13.6469 2.16249 13.8376C2.35312 14.0282 2.63437 14.1032 2.89687 14.0282L4.83437 13.4813L5.32812 15.4344C5.39375 15.6969 5.6 15.9032 5.8625 15.9751C6.125 16.0469 6.40312 15.9688 6.59375 15.7751L8 14.3313L9.40625 15.7751C9.59687 15.9688 9.875 16.0469 10.1375 15.9751C10.4 15.9032 10.6031 15.6969 10.6719 15.4344L11.1656 13.4813L13.1031 14.0282C13.3656 14.1032 13.6469 14.0282 13.8375 13.8376C14.0281 13.6469 14.1031 13.3657 14.0281 13.1032L13.4812 11.1657L15.4344 10.6719C15.6969 10.6063 15.9031 10.4001 15.975 10.1376C16.0469 9.87506 15.9687 9.59693 15.775 9.40631L14.3312 8.00006L15.775 6.59381C15.9687 6.40318 16.0469 6.12506 15.975 5.86256C15.9031 5.60006 15.6969 5.39693 15.4344 5.32818L13.4812 4.83443L14.0281 2.89693C14.1031 2.63443 14.0281 2.35318 13.8375 2.16256C13.6469 1.97193 13.3656 1.89693 13.1031 1.97193L11.1656 2.51881L10.6687 0.565681C10.6031 0.303181 10.3969 0.0969311 10.1344 0.0250561C9.87187 -0.0468189 9.59375 0.0313061 9.40625 0.228181L8 1.67193L6.59375 0.228181Z" fill="#86EFAC"/>
</svg>
