<svg width="16" height="14" viewBox="0 0 16 14" fill="none" xmlns="http://www.w3.org/2000/svg">
<path d="M1.4875 8.38742L7.13438 13.6593C7.36875 13.878 7.67812 13.9999 8 13.9999C8.32187 13.9999 8.63125 13.878 8.86563 13.6593L14.5125 8.38742C15.4625 7.50305 16 6.26242 16 4.96555V4.7843C16 2.59992 14.4219 0.737423 12.2688 0.378048C10.8438 0.140548 9.39375 0.606173 8.375 1.62492L8 1.99992L7.625 1.62492C6.60625 0.606173 5.15625 0.140548 3.73125 0.378048C1.57812 0.737423 0 2.59992 0 4.7843V4.96555C0 6.26242 0.5375 7.50305 1.4875 8.38742Z" fill="white"/>
</svg>
