<svg width="15" height="14" viewBox="0 0 15 14" fill="none" xmlns="http://www.w3.org/2000/svg">
<path d="M7.70627 3.40635C5.71877 3.40635 4.11565 5.00947 4.11565 6.99697C4.11565 8.98447 5.71877 10.5876 7.70627 10.5876C9.69377 10.5876 11.2969 8.98447 11.2969 6.99697C11.2969 5.00947 9.69377 3.40635 7.70627 3.40635ZM7.70627 9.33135C6.4219 9.33135 5.3719 8.28447 5.3719 6.99697C5.3719 5.70947 6.41877 4.6626 7.70627 4.6626C8.99377 4.6626 10.0406 5.70947 10.0406 6.99697C10.0406 8.28447 8.99065 9.33135 7.70627 9.33135ZM12.2813 3.25947C12.2813 3.7251 11.9063 4.09697 11.4438 4.09697C10.9782 4.09697 10.6063 3.72197 10.6063 3.25947C10.6063 2.79697 10.9813 2.42197 11.4438 2.42197C11.9063 2.42197 12.2813 2.79697 12.2813 3.25947ZM14.6594 4.10947C14.6063 2.9876 14.35 1.99385 13.5281 1.1751C12.7094 0.356348 11.7156 0.100098 10.5938 0.0438477C9.43752 -0.0217773 5.9719 -0.0217773 4.81565 0.0438477C3.6969 0.0969727 2.70315 0.353223 1.88127 1.17197C1.0594 1.99072 0.806274 2.98447 0.750024 4.10635C0.684399 5.2626 0.684399 8.72822 0.750024 9.88447C0.803149 11.0063 1.0594 12.0001 1.88127 12.8188C2.70315 13.6376 3.69377 13.8938 4.81565 13.9501C5.9719 14.0157 9.43752 14.0157 10.5938 13.9501C11.7156 13.897 12.7094 13.6407 13.5281 12.8188C14.3469 12.0001 14.6032 11.0063 14.6594 9.88447C14.725 8.72822 14.725 5.26572 14.6594 4.10947ZM13.1656 11.1251C12.9219 11.7376 12.45 12.2095 11.8344 12.4563C10.9125 12.822 8.72502 12.7376 7.70627 12.7376C6.68752 12.7376 4.4969 12.8188 3.57815 12.4563C2.96565 12.2126 2.49377 11.7407 2.2469 11.1251C1.88127 10.2032 1.96565 8.01572 1.96565 6.99697C1.96565 5.97822 1.8844 3.7876 2.2469 2.86885C2.49065 2.25635 2.96252 1.78447 3.57815 1.5376C4.50002 1.17197 6.68752 1.25635 7.70627 1.25635C8.72502 1.25635 10.9157 1.1751 11.8344 1.5376C12.4469 1.78135 12.9188 2.25322 13.1656 2.86885C13.5313 3.79072 13.4469 5.97822 13.4469 6.99697C13.4469 8.01572 13.5313 10.2063 13.1656 11.1251Z" fill="#9333EA"/>
</svg>
