<svg width="15" height="24" viewBox="0 0 15 24" fill="none" xmlns="http://www.w3.org/2000/svg">
<path d="M7.5 0C8.32969 0 9 0.670312 9 1.5V3.17344C9.075 3.18281 9.14531 3.19219 9.22031 3.20625C9.23906 3.21094 9.25312 3.21094 9.27187 3.21562L11.5219 3.62813C12.3375 3.77813 12.8766 4.56094 12.7266 5.37187C12.5766 6.18281 11.7937 6.72656 10.9828 6.57656L8.75625 6.16875C7.28906 5.95313 5.99531 6.09844 5.08594 6.45938C4.17656 6.82031 3.81094 7.31719 3.72656 7.77656C3.63281 8.27812 3.70312 8.55937 3.78281 8.73281C3.86719 8.91563 4.04062 9.12187 4.38281 9.35156C5.14687 9.85312 6.31875 10.1813 7.8375 10.5844L7.97344 10.6219C9.31406 10.9781 10.9547 11.4094 12.1734 12.2062C12.8391 12.6422 13.4672 13.2328 13.8562 14.0578C14.2547 14.8969 14.3391 15.8344 14.1562 16.8328C13.8328 18.6141 12.6047 19.8047 11.0812 20.4281C10.4391 20.6906 9.74062 20.8594 9 20.9437V22.5C9 23.3297 8.32969 24 7.5 24C6.67031 24 6 23.3297 6 22.5V20.8641C5.98125 20.8594 5.95781 20.8594 5.93906 20.8547H5.92969C4.78594 20.6766 2.90625 20.1844 1.64062 19.6219C0.885936 19.2844 0.543749 18.3984 0.881249 17.6437C1.21875 16.8891 2.10469 16.5469 2.85937 16.8844C3.83906 17.3203 5.45156 17.7516 6.38437 17.8969C7.87969 18.1172 9.1125 17.9906 9.94687 17.6484C10.7391 17.325 11.1 16.8563 11.2031 16.2938C11.2922 15.7969 11.2219 15.5109 11.1422 15.3375C11.0531 15.15 10.8797 14.9437 10.5328 14.7141C9.76406 14.2125 8.5875 13.8844 7.06406 13.4813L6.93281 13.4484C5.59687 13.0922 3.95625 12.6562 2.7375 11.8594C2.07187 11.4234 1.44844 10.8281 1.05937 10.0031C0.665624 9.16406 0.585937 8.22656 0.773437 7.22812C1.11094 5.4375 2.45156 4.275 3.975 3.67031C4.59844 3.42188 5.28281 3.25313 6 3.15469V1.5C6 0.670312 6.67031 0 7.5 0Z" fill="#CA8A04"/>
</svg>
