<svg width="39" height="31" viewBox="0 0 39 31" fill="none" xmlns="http://www.w3.org/2000/svg">
<path d="M9.01562 0.75C10.2588 0.75 11.4511 1.24386 12.3302 2.12294C13.2093 3.00201 13.7031 4.1943 13.7031 5.4375C13.7031 6.6807 13.2093 7.87299 12.3302 8.75206C11.4511 9.63114 10.2588 10.125 9.01562 10.125C7.77242 10.125 6.58014 9.63114 5.70106 8.75206C4.82199 7.87299 4.32812 6.6807 4.32812 5.4375C4.32812 4.1943 4.82199 3.00201 5.70106 2.12294C6.58014 1.24386 7.77242 0.75 9.01562 0.75ZM30.5781 0.75C31.8213 0.75 33.0136 1.24386 33.8927 2.12294C34.7718 3.00201 35.2656 4.1943 35.2656 5.4375C35.2656 6.6807 34.7718 7.87299 33.8927 8.75206C33.0136 9.63114 31.8213 10.125 30.5781 10.125C29.3349 10.125 28.1426 9.63114 27.2636 8.75206C26.3845 7.87299 25.8906 6.6807 25.8906 5.4375C25.8906 4.1943 26.3845 3.00201 27.2636 2.12294C28.1426 1.24386 29.3349 0.75 30.5781 0.75ZM0.578125 18.252C0.578125 14.8008 3.37891 12 6.83008 12H9.33203C10.2637 12 11.1484 12.2051 11.9453 12.5684C11.8691 12.9902 11.834 13.4297 11.834 13.875C11.834 16.1133 12.8184 18.123 14.3711 19.5C14.3594 19.5 14.3477 19.5 14.3301 19.5H1.82617C1.14062 19.5 0.578125 18.9375 0.578125 18.252ZM24.3262 19.5C24.3145 19.5 24.3027 19.5 24.2852 19.5C25.8438 18.123 26.8223 16.1133 26.8223 13.875C26.8223 13.4297 26.7812 12.9961 26.7109 12.5684C27.5078 12.1992 28.3926 12 29.3242 12H31.8262C35.2773 12 38.0781 14.8008 38.0781 18.252C38.0781 18.9434 37.5156 19.5 36.8301 19.5H24.3262ZM13.7031 13.875C13.7031 12.3832 14.2958 10.9524 15.3506 9.89752C16.4055 8.84263 17.8363 8.25 19.3281 8.25C20.82 8.25 22.2507 8.84263 23.3056 9.89752C24.3605 10.9524 24.9531 12.3832 24.9531 13.875C24.9531 15.3668 24.3605 16.7976 23.3056 17.8525C22.2507 18.9074 20.82 19.5 19.3281 19.5C17.8363 19.5 16.4055 18.9074 15.3506 17.8525C14.2958 16.7976 13.7031 15.3668 13.7031 13.875ZM8.07812 29.1855C8.07812 24.873 11.5762 21.375 15.8887 21.375H22.7676C27.0801 21.375 30.5781 24.873 30.5781 29.1855C30.5781 30.0469 29.8809 30.75 29.0137 30.75H9.64258C8.78125 30.75 8.07812 30.0527 8.07812 29.1855Z" fill="white"/>
</svg>
