<svg width="32" height="31" viewBox="0 0 32 31" fill="none" xmlns="http://www.w3.org/2000/svg">
<path d="M17.3496 1.80469C17.0391 1.16016 16.3828 0.75 15.6621 0.75C14.9414 0.75 14.291 1.16016 13.9746 1.80469L10.207 9.55664L1.79298 10.7988C1.08986 10.9043 0.503918 11.3965 0.287121 12.0703C0.0703239 12.7441 0.246105 13.4883 0.750011 13.9863L6.85548 20.0273L5.41407 28.5645C5.29689 29.2676 5.58986 29.9824 6.16993 30.3984C6.75001 30.8145 7.51759 30.8672 8.1504 30.5332L15.668 26.5195L23.1856 30.5332C23.8184 30.8672 24.5859 30.8203 25.166 30.3984C25.7461 29.9766 26.0391 29.2676 25.9219 28.5645L24.4746 20.0273L30.5801 13.9863C31.084 13.4883 31.2656 12.7441 31.043 12.0703C30.8203 11.3965 30.2402 10.9043 29.5371 10.7988L21.1172 9.55664L17.3496 1.80469Z" fill="white"/>
</svg>
