<svg width="25" height="24" viewBox="0 0 25 24" fill="none" xmlns="http://www.w3.org/2000/svg">
<path d="M13.8547 0.84375C13.6062 0.328125 13.0813 0 12.5047 0C11.9281 0 11.4078 0.328125 11.1547 0.84375L8.14062 7.04531L1.40938 8.03906C0.846875 8.12344 0.378125 8.51719 0.204688 9.05625C0.03125 9.59531 0.171875 10.1906 0.575 10.5891L5.45938 15.4219L4.30625 22.2516C4.2125 22.8141 4.44688 23.3859 4.91094 23.7188C5.375 24.0516 5.98906 24.0938 6.49531 23.8266L12.5094 20.6156L18.5234 23.8266C19.0297 24.0938 19.6437 24.0562 20.1078 23.7188C20.5719 23.3813 20.8063 22.8141 20.7125 22.2516L19.5547 15.4219L24.4391 10.5891C24.8422 10.1906 24.9875 9.59531 24.8094 9.05625C24.6312 8.51719 24.1672 8.12344 23.6047 8.03906L16.8688 7.04531L13.8547 0.84375Z" fill="#9333EA"/>
</svg>
